<?xml version="1.0" encoding="UTF-8" standalone="no"?>
<!DOCTYPE svg PUBLIC "-//W3C//DTD SVG 1.1//EN" "http://www.w3.org/Graphics/SVG/1.1/DTD/svg11.dtd">
<!-- Created with Vectornator (http://vectornator.io/) -->
<svg height="100%" stroke-miterlimit="10" style="fill-rule:nonzero;clip-rule:evenodd;stroke-linecap:round;stroke-linejoin:round;" version="1.1" viewBox="0 0 2732 2048" width="100%" xml:space="preserve" xmlns="http://www.w3.org/2000/svg" xmlns:vectornator="http://vectornator.io" xmlns:xlink="http://www.w3.org/1999/xlink">
<defs/>
<g id="Layer-1" vectornator:layerName="Layer 1">
<path d="M634.854 1194.27C634.854 949.434 836.128 750.956 1084.41 750.956C1332.7 750.956 1533.97 949.434 1533.97 1194.27C1533.97 1439.11 1332.7 1637.58 1084.41 1637.58C836.128 1637.58 634.854 1439.11 634.854 1194.27Z" fill="#3785d9" fill-rule="nonzero" opacity="1" stroke="none" vectornator:layerName="Oval 1"/>
<g opacity="1" vectornator:layerName="Group 1">
<g opacity="1" vectornator:layerName="Group 1">
<g opacity="1" vectornator:layerName="Group 1">
<g opacity="1" vectornator:layerName="Group 1">
<path d="M690.455 1330.73C690.455 1186.16 805.349 1068.96 947.077 1068.96C1088.81 1068.96 1203.7 1186.16 1203.7 1330.73C1203.7 1475.31 1088.81 1592.51 947.077 1592.51C805.349 1592.51 690.455 1475.31 690.455 1330.73Z" fill="#e2f0ff" fill-rule="nonzero" opacity="1" stroke="none" vectornator:layerName="Oval 2"/>
</g>
</g>
</g>
</g>
<path d="M981.65 1530.85L861.58 1446.19L715.373 1439.71L798.986 1319.59L804.608 1172.78L924.679 1257.45L1070.89 1263.93L987.273 1384.04L981.65 1530.85Z" fill="#ffaa2c" fill-rule="nonzero" opacity="1" stroke="#e2f0ff" stroke-linecap="butt" stroke-linejoin="round" stroke-opacity="0" stroke-width="8.35746" vectornator:layerName="Star 1"/>
<path d="M1299.31 1014.83L992.576 1330.73L1414.82 1197.34" fill="#3785d9" fill-rule="nonzero" opacity="1" stroke="#e2f0ff" stroke-linecap="butt" stroke-linejoin="round" stroke-width="10" vectornator:layerName="Curve 1"/>
<path d="M893.129 722.924C893.129 622.476 978.769 541.046 1084.41 541.046C1190.05 541.046 1275.69 622.476 1275.69 722.924C1275.69 823.373 1190.05 904.803 1084.41 904.803C978.769 904.803 893.129 823.373 893.129 722.924Z" fill="#3785d9" fill-rule="nonzero" opacity="1" stroke="#e2f0ff" stroke-linecap="butt" stroke-linejoin="round" stroke-width="10" vectornator:layerName="Oval 2"/>
<path d="M761.083 595.228L1079.96 722.924L1366 563.851L1052.23 435.425L765.461 590.12" fill="#ffaa2c" fill-rule="nonzero" opacity="1" stroke="#e2f0ff" stroke-linecap="butt" stroke-linejoin="round" stroke-opacity="0" stroke-width="8.35746" vectornator:layerName="Curve 2"/>
<path d="M823.975 602.238L814.941 719.54" fill="#ffaa2c" fill-rule="nonzero" opacity="1" stroke="#ffaa2c" stroke-linecap="butt" stroke-linejoin="round" stroke-width="8.35746" vectornator:layerName="Curve 3"/>
<path d="M814.941 741.176L803.566 732.912L807.911 719.54L821.971 719.54L826.316 732.912L814.941 741.176Z" fill="#ffaa2c" fill-rule="nonzero" opacity="1" stroke="#ffaa2c" stroke-linecap="butt" stroke-linejoin="round" stroke-width="8.35746" vectornator:layerName="Polygon 1"/>
<path d="M803.566 760.031L808.755 753.07L813.943 746.109L812.893 760.702L811.843 775.295L807.705 767.663L803.566 760.031Z" fill="#ffaa2c" fill-rule="nonzero" opacity="1" stroke="#ffaa2c" stroke-linecap="butt" stroke-linejoin="round" stroke-width="8.35746" vectornator:layerName="Star 2"/>
<g fill="#3395ff" opacity="1" stroke="none" vectornator:layerName="Text 1">
<path d="M528.087 1668.4L542.056 1668.4L542.056 1760.27L564.889 1760.27L564.889 1772.09L528.087 1772.09L528.087 1668.4Z"/>
<path d="M631.138 1748.65L643.092 1748.65C642.152 1765 635.436 1773.17 622.945 1773.17C619.229 1773.17 616.039 1772.47 613.375 1771.08C610.711 1769.7 608.507 1767.55 606.76 1764.64C605.014 1761.73 603.727 1758.03 602.899 1753.56C602.071 1749.08 601.657 1743.75 601.657 1737.57C601.657 1725.31 603.369 1716.22 606.794 1710.31C610.219 1704.4 615.513 1701.44 622.676 1701.44C636.6 1701.44 643.562 1713.71 643.562 1738.25L643.562 1739.86L614.215 1739.86C614.215 1754.72 617.17 1762.15 623.079 1762.15C628.452 1762.15 631.138 1757.65 631.138 1748.65ZM630.466 1730.59C629.929 1723.29 629.101 1718.5 627.982 1716.22C626.818 1713.67 624.937 1712.39 622.341 1712.39C619.699 1712.39 617.819 1713.67 616.7 1716.22C615.58 1718.5 614.752 1723.29 614.215 1730.59L630.466 1730.59Z"/>
<path d="M726.063 1702.59L726.063 1772.09L713.236 1772.09L713.236 1763.16C711.4 1766.97 709.565 1769.59 707.729 1771.02C705.894 1772.45 703.476 1773.17 700.476 1773.17C694.701 1773.17 690.47 1770.21 687.784 1764.3C685.098 1758.39 683.755 1749.12 683.755 1736.5C683.755 1724.46 685.098 1715.6 687.784 1709.94C690.47 1704.28 694.701 1701.44 700.476 1701.44C705.759 1701.44 710.013 1704.44 713.236 1710.44L713.236 1702.59L726.063 1702.59ZM697.051 1737.04C697.051 1746.17 697.656 1752.55 698.865 1756.18C700.118 1759.8 702.312 1761.62 705.446 1761.62C708.311 1761.62 710.393 1759.74 711.691 1755.97C712.99 1751.95 713.639 1745.74 713.639 1737.37C713.639 1728.96 712.99 1722.73 711.691 1718.7C710.393 1714.94 708.311 1713.06 705.446 1713.06C702.402 1713.06 700.23 1714.85 698.932 1718.43C697.678 1721.75 697.051 1727.95 697.051 1737.04Z"/>
<path d="M772.031 1702.59L784.858 1702.59L784.858 1711.25C787.051 1707.58 789.223 1705 791.372 1703.53C793.521 1702.05 796.364 1701.2 799.901 1700.97L799.901 1714.41C799.005 1714.27 798.244 1714.2 797.617 1714.2C793.006 1714.2 789.715 1715.39 787.745 1717.76C785.82 1720.09 784.858 1724.17 784.858 1729.99L784.858 1772.09L772.031 1772.09L772.031 1702.59Z"/>
<path d="M840.429 1702.59L853.256 1702.59L853.256 1710.58C856.927 1704.49 861.673 1701.44 867.493 1701.44C873.134 1701.44 877.163 1703.66 879.581 1708.09C880.924 1710.6 881.596 1715.46 881.596 1722.67L881.596 1772.09L868.769 1772.09L868.702 1725.62C868.702 1720.92 868.142 1717.58 867.023 1715.61C865.904 1713.64 863.978 1712.66 861.247 1712.66C859.77 1712.66 858.528 1712.92 857.52 1713.43C856.513 1713.95 855.696 1714.77 855.069 1715.92C854.442 1717.06 853.983 1718.55 853.692 1720.38C853.401 1722.22 853.256 1724.48 853.256 1727.16L853.256 1772.09L840.429 1772.09L840.429 1702.59Z"/>
<path d="M927.497 1702.59L940.391 1702.59L940.391 1772.09L927.497 1772.09L927.497 1702.59ZM933.541 1673.04C935.869 1673.04 937.883 1673.89 939.585 1675.59C941.286 1677.29 942.137 1679.33 942.137 1681.7C942.137 1684.12 941.286 1686.18 939.585 1687.88C937.883 1689.58 935.824 1690.43 933.406 1690.43C930.989 1690.43 928.929 1689.58 927.228 1687.88C925.572 1686.22 924.743 1684.14 924.743 1681.63C924.743 1679.31 925.594 1677.29 927.295 1675.59C929.131 1673.89 931.213 1673.04 933.541 1673.04Z"/>
<path d="M986.224 1702.59L999.051 1702.59L999.051 1710.58C1002.72 1704.49 1007.47 1701.44 1013.29 1701.44C1018.93 1701.44 1022.96 1703.66 1025.38 1708.09C1026.72 1710.6 1027.39 1715.46 1027.39 1722.67L1027.39 1772.09L1014.56 1772.09L1014.5 1725.62C1014.5 1720.92 1013.94 1717.58 1012.82 1715.61C1011.7 1713.64 1009.77 1712.66 1007.04 1712.66C1005.57 1712.66 1004.32 1712.92 1003.32 1713.43C1002.31 1713.95 1001.49 1714.77 1000.86 1715.92C1000.24 1717.06 999.779 1718.55 999.488 1720.38C999.197 1722.22 999.051 1724.48 999.051 1727.16L999.051 1772.09L986.224 1772.09L986.224 1702.59Z"/>
<path d="M1100.22 1702.59L1113.12 1702.59L1113.12 1774.31C1113.12 1782.9 1112.26 1788.86 1110.56 1792.17C1107.43 1798.26 1101.14 1801.31 1091.69 1801.31C1085.47 1801.31 1080.59 1799.54 1077.05 1796C1073.47 1792.42 1071.68 1787.61 1071.68 1781.56L1071.75 1779.41L1084.17 1779.41C1084.17 1786.8 1086.92 1790.49 1092.43 1790.49C1095.43 1790.49 1097.47 1789.55 1098.54 1787.67C1099.66 1785.88 1100.22 1782.32 1100.22 1776.99L1100.22 1763.63C1097.49 1769.99 1093.3 1773.17 1087.66 1773.17C1081.84 1773.17 1077.56 1770.35 1074.8 1764.71C1072.05 1759.06 1070.67 1750.24 1070.67 1738.25C1070.67 1725.53 1071.99 1716.15 1074.64 1710.11C1077.23 1704.33 1081.55 1701.44 1087.6 1701.44C1090.46 1701.44 1092.79 1702.14 1094.58 1703.53C1096.37 1704.91 1098.25 1707.38 1100.22 1710.91L1100.22 1702.59ZM1100.42 1737.98C1100.42 1721.37 1097.56 1713.06 1091.83 1713.06C1089.1 1713.06 1087.1 1714.93 1085.85 1718.67C1084.6 1722.41 1083.97 1728.4 1083.97 1736.63C1083.97 1745.36 1084.62 1751.79 1085.92 1755.91C1087.26 1759.71 1089.5 1761.62 1092.63 1761.62C1095.59 1761.62 1097.62 1759.91 1098.74 1756.51C1099.86 1753.33 1100.42 1747.16 1100.42 1737.98Z"/>
<path d="M1258.57 1657.99L1258.57 1772.09L1245.75 1772.09L1245.75 1763.16C1243.91 1766.97 1242.08 1769.59 1240.24 1771.02C1238.41 1772.45 1235.97 1773.17 1232.92 1773.17C1227.19 1773.17 1222.98 1770.22 1220.3 1764.34C1217.61 1758.45 1216.27 1749.19 1216.27 1736.57C1216.27 1730.48 1216.6 1725.22 1217.27 1720.79C1217.95 1716.35 1218.96 1712.7 1220.33 1709.84C1221.7 1706.97 1223.45 1704.86 1225.6 1703.49C1227.75 1702.13 1230.3 1701.44 1233.26 1701.44C1236.08 1701.44 1238.41 1702.12 1240.24 1703.46C1241.14 1704.09 1242.05 1704.98 1242.99 1706.15C1243.93 1707.31 1244.85 1708.74 1245.75 1710.44L1245.75 1657.99L1258.57 1657.99ZM1229.56 1737.04C1229.56 1746.17 1230.17 1752.55 1231.38 1756.18C1232.63 1759.8 1234.82 1761.62 1237.96 1761.62C1240.82 1761.62 1242.91 1759.74 1244.2 1755.97C1245.5 1751.95 1246.15 1745.74 1246.15 1737.37C1246.15 1728.96 1245.5 1722.73 1244.2 1718.7C1242.91 1714.94 1240.82 1713.06 1237.96 1713.06C1234.91 1713.06 1232.74 1714.85 1231.44 1718.43C1230.19 1721.75 1229.56 1727.95 1229.56 1737.04Z"/>
<path d="M1331.41 1748.65L1343.36 1748.65C1342.42 1765 1335.7 1773.17 1323.21 1773.17C1319.5 1773.17 1316.31 1772.47 1313.64 1771.08C1310.98 1769.7 1308.77 1767.55 1307.03 1764.64C1305.28 1761.73 1303.99 1758.03 1303.17 1753.56C1302.34 1749.08 1301.92 1743.75 1301.92 1737.57C1301.92 1725.31 1303.64 1716.22 1307.06 1710.31C1310.49 1704.4 1315.78 1701.44 1322.94 1701.44C1336.87 1701.44 1343.83 1713.71 1343.83 1738.25L1343.83 1739.86L1314.48 1739.86C1314.48 1754.72 1317.44 1762.15 1323.35 1762.15C1328.72 1762.15 1331.41 1757.65 1331.41 1748.65ZM1330.73 1730.59C1330.2 1723.29 1329.37 1718.5 1328.25 1716.22C1327.09 1713.67 1325.2 1712.39 1322.61 1712.39C1319.97 1712.39 1318.09 1713.67 1316.97 1716.22C1315.85 1718.5 1315.02 1723.29 1314.48 1730.59L1330.73 1730.59Z"/>
<path d="M1413.5 1704L1413.5 1716.02C1410.37 1713.69 1407.08 1712.53 1403.63 1712.53C1402.47 1712.53 1401.39 1712.73 1400.41 1713.13C1399.42 1713.53 1398.56 1714.08 1397.82 1714.77C1397.08 1715.47 1396.5 1716.3 1396.08 1717.26C1395.65 1718.22 1395.44 1719.24 1395.44 1720.32C1395.44 1723.63 1398.44 1727.57 1404.44 1732.13C1406.86 1734.01 1408.87 1735.76 1410.48 1737.37C1412.09 1738.98 1413.32 1740.51 1414.18 1741.94C1415.92 1744.76 1416.79 1748.32 1416.79 1752.62C1416.79 1758.84 1414.98 1763.83 1411.35 1767.59C1407.77 1771.31 1402.96 1773.17 1396.92 1773.17C1393.2 1773.17 1389.44 1772.07 1385.63 1769.88L1385.63 1757.45C1389.35 1760.23 1392.86 1761.62 1396.18 1761.62C1402.04 1761.62 1404.97 1758.73 1404.97 1752.95C1404.97 1750.8 1404.44 1748.95 1403.36 1747.38C1402.87 1746.62 1402.09 1745.73 1401.01 1744.73C1399.94 1743.72 1398.62 1742.59 1397.05 1741.33C1391.63 1737.13 1387.96 1733.59 1386.04 1730.72C1384.16 1727.77 1383.22 1724.21 1383.22 1720.05C1383.22 1714.45 1384.94 1709.86 1388.39 1706.28C1391.88 1702.74 1396.42 1700.97 1402.02 1700.97C1405.96 1700.97 1409.79 1701.98 1413.5 1704Z"/>
<path d="M1460.68 1683.11L1473.51 1683.11L1473.51 1702.59L1480.49 1702.59L1480.49 1712.79L1473.51 1712.79L1473.51 1772.09L1460.68 1772.09L1460.68 1712.79L1453.63 1712.79L1453.63 1702.59L1460.68 1702.59L1460.68 1683.11Z"/>
<path d="M1521.09 1702.59L1533.98 1702.59L1533.98 1772.09L1521.09 1772.09L1521.09 1702.59ZM1527.13 1673.04C1529.46 1673.04 1531.47 1673.89 1533.18 1675.59C1534.88 1677.29 1535.73 1679.33 1535.73 1681.7C1535.73 1684.12 1534.88 1686.18 1533.18 1687.88C1531.47 1689.58 1529.41 1690.43 1527 1690.43C1524.58 1690.43 1522.52 1689.58 1520.82 1687.88C1519.16 1686.22 1518.33 1684.14 1518.33 1681.63C1518.33 1679.31 1519.18 1677.29 1520.89 1675.59C1522.72 1673.89 1524.8 1673.04 1527.13 1673.04Z"/>
<path d="M1579.81 1702.59L1592.64 1702.59L1592.64 1710.58C1596.31 1704.49 1601.06 1701.44 1606.88 1701.44C1612.52 1701.44 1616.55 1703.66 1618.97 1708.09C1620.31 1710.6 1620.98 1715.46 1620.98 1722.67L1620.98 1772.09L1608.15 1772.09L1608.09 1725.62C1608.09 1720.92 1607.53 1717.58 1606.41 1715.61C1605.29 1713.64 1603.36 1712.66 1600.63 1712.66C1599.16 1712.66 1597.91 1712.92 1596.91 1713.43C1595.9 1713.95 1595.08 1714.77 1594.45 1715.92C1593.83 1717.06 1593.37 1718.55 1593.08 1720.38C1592.79 1722.22 1592.64 1724.48 1592.64 1727.16L1592.64 1772.09L1579.81 1772.09L1579.81 1702.59Z"/>
<path d="M1659.5 1702.59L1674 1702.59L1684.21 1751.07L1696.16 1702.59L1709.19 1702.59L1680.78 1800.57L1667.29 1800.57L1677.96 1766.52L1659.5 1702.59Z"/>
</g>
</g>
</svg>
